<svg xmlns="http://www.w3.org/2000/svg" viewBox="0 0 448 512" fill="white">
  <path d="M380.9 97.1C339 55.1 283.2 32 224.8 32 106 32 8 129.1 8 247.6c0 38.1 9.9 75.3 28.7 108L0 480l127.5-33.5c31.7 17.3 67.6 26.4 104.3 26.4h.1c118.8 0 216.8-97.1 216.8-215.6.1-58.4-22.8-114.3-64.8-156.2zM224 438.7c-31.3 0-61.9-8.5-88.4-24.7l-6.3-3.7-75.6 19.9 20.2-73.6-4.1-6.7c-17.8-29-27.2-62.5-27.2-96.3 0-100.5 81.9-182.3 182.7-182.3 48.8 0 94.7 19 129.2 53.5 34.5 34.5 53.5 80.4 53.5 129.2 0 100.5-81.9 182.4-184.2 182.4zm101.1-138.3c-5.5-2.8-32.5-16-37.6-17.8-5.1-1.9-8.8-2.8-12.5 2.8s-14.3 17.8-17.5 21.6c-3.2 3.7-6.5 4.2-12 1.4-32.5-16-53.8-28.5-75.2-64.5-5.7-9.8 5.7-9.1 16.3-30.2 1.8-3.7.9-6.9-.5-9.7-1.4-2.8-12.5-30.1-17.1-41.2-4.5-10.8-9.1-9.3-12.5-9.5-3.2-.2-6.9-.2-10.6-.2s-9.7 1.4-14.8 6.9c-5.1 5.7-19.4 19-19.4 46.3s19.9 53.7 22.7 57.5c2.8 3.7 39.1 59.5 94.8 83.4 35.3 15.2 49.1 16.5 66.8 13.9 10.8-1.6 32.5-13.2 37.1-25.9 4.6-12.5 4.6-23.2 3.2-25.9-1.3-2.7-5.1-4.1-10.6-6.9z"/>
</svg>